<?xml version="1.0" encoding="utf-8"?>
<!-- Generator: Adobe Illustrator 19.0.0, SVG Export Plug-In . SVG Version: 6.00 Build 0)  -->
<svg version="1.1" id="Layer_1" xmlns="http://www.w3.org/2000/svg" xmlns:xlink="http://www.w3.org/1999/xlink" x="0px" y="0px"
	 viewBox="0 0 612 792" style="enable-background:new 0 0 612 792;" xml:space="preserve">
<style type="text/css">
	.st0{fill:#C4E0EC;}
	.st1{fill:#12426D;}
	.st2{fill:#E8EAE9;}
	.st3{fill:#F5F7F7;}
	.st4{fill:#ECF0F2;}
	.st5{fill:#E2E2E2;}
	.st6{fill:#5986AF;}
	.st7{fill:#74A1D1;}
	.st8{fill:#4B7B9E;}
	.st9{fill:#B9D6F0;}
	.st10{fill:#EEF9FE;}
	.st11{fill:#EC8277;}
	.st12{fill:#D8EBF9;}
	.st13{fill:#FBCDCC;}
</style>
<g id="Background_Sprinkles_1_">
	<g id="Background_Sprinkles">
		<g id="XMLID_392_">
			<g id="XMLID_396_">
				<g id="XMLID_170_">
					<path id="XMLID_372_" class="st0" d="M173.4,156c-0.3,0-0.5-0.1-0.8-0.2c-0.8-0.4-1.1-1.4-0.7-2.2l13.2-25.2
						c0.4-0.8,1.4-1.1,2.2-0.7c0.8,0.4,1.1,1.4,0.7,2.2l-13.2,25.2C174.6,155.6,174,156,173.4,156z"/>
				</g>
				<g id="XMLID_169_">
					<path id="XMLID_371_" class="st0" d="M192.6,150c-0.3,0-0.5-0.1-0.8-0.2l-25.2-13.2c-0.8-0.4-1.1-1.4-0.7-2.2
						c0.4-0.8,1.4-1.1,2.2-0.7l25.2,13.2c0.8,0.4,1.1,1.4,0.7,2.2C193.8,149.7,193.2,150,192.6,150z"/>
				</g>
			</g>
			<g id="XMLID_393_">
				<g id="XMLID_168_">
					<path id="XMLID_370_" class="st0" d="M166.5,147.6c-0.7,0-1.4-0.5-1.6-1.2c-0.3-0.9,0.2-1.8,1.1-2.1l27.1-8.5
						c0.9-0.3,1.8,0.2,2.1,1.1c0.3,0.9-0.2,1.8-1.1,2.1l-27.1,8.5C166.8,147.6,166.6,147.6,166.5,147.6z"/>
				</g>
				<g id="XMLID_167_">
					<path id="XMLID_369_" class="st0" d="M184.3,157c-0.7,0-1.4-0.5-1.6-1.2l-8.5-27.1c-0.3-0.9,0.2-1.8,1.1-2.1
						c0.9-0.3,1.8,0.2,2.1,1.1l8.5,27.1c0.3,0.9-0.2,1.8-1.1,2.1C184.6,156.9,184.4,157,184.3,157z"/>
				</g>
			</g>
		</g>
		<circle id="XMLID_166_" class="st0" cx="446.9" cy="148.5" r="6.8"/>
		<g id="XMLID_353_">
			<g id="XMLID_357_">
				<g id="XMLID_138_">
					<path id="XMLID_376_" class="st0" d="M112.7,498.7c-0.9,0-1.7-0.7-1.7-1.7v-28.4c0-0.9,0.7-1.7,1.7-1.7s1.7,0.7,1.7,1.7v28.4
						C114.3,498,113.6,498.7,112.7,498.7z"/>
				</g>
				<g id="XMLID_137_">
					<path id="XMLID_375_" class="st0" d="M126.9,484.5H98.5c-0.9,0-1.7-0.7-1.7-1.7s0.7-1.7,1.7-1.7h28.4c0.9,0,1.7,0.7,1.7,1.7
						S127.8,484.5,126.9,484.5z"/>
				</g>
			</g>
			<g id="XMLID_354_">
				<g id="XMLID_136_">
					<path id="XMLID_374_" class="st0" d="M102.6,494.6c-0.4,0-0.9-0.2-1.2-0.5c-0.6-0.6-0.6-1.7,0-2.4l20.1-20.1
						c0.6-0.7,1.7-0.7,2.4,0c0.6,0.6,0.6,1.7,0,2.4l-20.1,20.1C103.5,494.4,103.1,494.6,102.6,494.6z"/>
				</g>
				<g id="XMLID_135_">
					<path id="XMLID_373_" class="st0" d="M122.7,494.6c-0.4,0-0.9-0.2-1.2-0.5L101.5,474c-0.6-0.6-0.6-1.7,0-2.4
						c0.6-0.7,1.7-0.7,2.4,0l20.1,20.1c0.6,0.6,0.6,1.7,0,2.4C123.6,494.4,123.2,494.6,122.7,494.6z"/>
				</g>
			</g>
		</g>
	</g>
	<g id="XMLID_4_">
		<path id="XMLID_378_" class="st0" d="M467.5,520.6c0.6-1.8,2.3-2.6,3.9-1.9c1.7,0.6,2.3,2.3,1.7,4c-0.6,1.7-2.2,2.5-3.9,1.9
			C467.6,523.9,466.9,522.2,467.5,520.6z M471,514.3l0.4-1.3c0.7-2.7,2.5-5.2,6-7.1c3.1-1.7,4.9-3.1,5.7-5.3c0.9-2.4,0-4.6-3-5.7
			c-1.7-0.6-3.8-0.8-5.3-0.3l0-3.4c2-0.6,5-0.3,7.5,0.6c5.5,2,6.7,6.3,5.4,9.9c-1.2,3.2-3.8,4.9-7.1,6.8c-3,1.7-4.5,3.5-5.3,6
			l-0.4,1.3L471,514.3z"/>
	</g>
</g>
<g id="Sprinkles">
	<g id="XMLID_227_">
		<g id="XMLID_231_">
			<g id="XMLID_27_">
				<path id="XMLID_368_" class="st1" d="M498.1,341.3c-0.3,0-0.5-0.1-0.8-0.2c-0.8-0.4-1.1-1.4-0.7-2.2l13.2-25.2
					c0.4-0.8,1.4-1.1,2.2-0.7c0.8,0.4,1.1,1.4,0.7,2.2l-13.2,25.2C499.2,340.9,498.7,341.3,498.1,341.3z"/>
			</g>
			<g id="XMLID_26_">
				<path id="XMLID_367_" class="st1" d="M517.2,335.3c-0.3,0-0.5-0.1-0.8-0.2l-25.2-13.2c-0.8-0.4-1.1-1.4-0.7-2.2
					c0.4-0.8,1.4-1.1,2.2-0.7l25.2,13.2c0.8,0.4,1.1,1.4,0.7,2.2C518.4,334.9,517.8,335.3,517.2,335.3z"/>
			</g>
		</g>
		<g id="XMLID_228_">
			<g id="XMLID_25_">
				<path id="XMLID_366_" class="st1" d="M491.1,332.9c-0.7,0-1.4-0.5-1.6-1.2c-0.3-0.9,0.2-1.8,1.1-2.1l27.1-8.5
					c0.9-0.3,1.8,0.2,2.1,1.1c0.3,0.9-0.2,1.8-1.1,2.1l-27.1,8.5C491.4,332.9,491.3,332.9,491.1,332.9z"/>
			</g>
			<g id="XMLID_24_">
				<path id="XMLID_365_" class="st1" d="M508.9,342.2c-0.7,0-1.4-0.5-1.6-1.2l-8.5-27.1c-0.3-0.9,0.2-1.8,1.1-2.1
					c0.9-0.3,1.8,0.2,2.1,1.1l8.5,27.1c0.3,0.9-0.2,1.8-1.1,2.1C509.2,342.2,509.1,342.2,508.9,342.2z"/>
			</g>
		</g>
	</g>
	<g id="XMLID_220_">
		<g id="XMLID_224_">
			<g id="XMLID_23_">
				<path id="XMLID_364_" class="st1" d="M98.3,363c-0.3,0-0.5-0.1-0.8-0.2c-0.8-0.4-1.1-1.4-0.7-2.2l13.2-25.2
					c0.4-0.8,1.4-1.1,2.2-0.7c0.8,0.4,1.1,1.4,0.7,2.2l-13.2,25.2C99.5,362.6,98.9,363,98.3,363z"/>
			</g>
			<g id="XMLID_22_">
				<path id="XMLID_363_" class="st1" d="M117.5,357c-0.3,0-0.5-0.1-0.8-0.2l-25.2-13.2c-0.8-0.4-1.1-1.4-0.7-2.2
					c0.4-0.8,1.4-1.1,2.2-0.7l25.2,13.2c0.8,0.4,1.1,1.4,0.7,2.2C118.7,356.6,118.1,357,117.5,357z"/>
			</g>
		</g>
		<g id="XMLID_221_">
			<g id="XMLID_21_">
				<path id="XMLID_362_" class="st1" d="M91.3,354.6c-0.7,0-1.4-0.5-1.6-1.2c-0.3-0.9,0.2-1.8,1.1-2.1l27.1-8.5
					c0.9-0.3,1.8,0.2,2.1,1.1c0.3,0.9-0.2,1.8-1.1,2.1l-27.1,8.5C91.7,354.6,91.5,354.6,91.3,354.6z"/>
			</g>
			<g id="XMLID_20_">
				<path id="XMLID_361_" class="st1" d="M109.1,363.9c-0.7,0-1.4-0.5-1.6-1.2l-8.5-27.1c-0.3-0.9,0.2-1.8,1.1-2.1
					c0.9-0.3,1.8,0.2,2.1,1.1l8.5,27.1c0.3,0.9-0.2,1.8-1.1,2.1C109.5,363.9,109.3,363.9,109.1,363.9z"/>
			</g>
		</g>
	</g>
	<circle id="XMLID_19_" class="st1" cx="55" cy="380.5" r="6.8"/>
	<circle id="XMLID_18_" class="st1" cx="111.7" cy="218.1" r="6.8"/>
</g>
<g id="Robot_2_Hand_2">
	<polygon id="XMLID_360_" class="st2" points="471.9,585.6 463.6,599 463.8,614.9 467.8,632.3 475.5,635.7 481.8,631.8 489.1,619.4 
		486.4,600.6 480,587.5 	"/>
	<path id="XMLID_359_" class="st3" d="M475.5,635.7c0,0,7.6-31.3-3.5-50.2l8.1,1.9l5,10.3l2.3,18.7l-2.8,10.2L475.5,635.7z"/>
	<g id="XMLID_144_">
		<path id="XMLID_355_" class="st0" d="M475.5,638.4c-8.3,0-14.5-11.9-14.5-27.7c0-15.8,6.2-27.7,14.5-27.7s14.5,11.9,14.5,27.7
			C490,626.5,483.8,638.4,475.5,638.4z M475.5,588.2c-4.4,0-9.3,9.6-9.3,22.5c0,12.9,4.9,22.5,9.3,22.5s9.3-9.6,9.3-22.5
			C484.7,597.8,479.9,588.2,475.5,588.2z"/>
	</g>
</g>
<g id="Robot_2">
	<polygon id="XMLID_195_" class="st4" points="425.2,530.6 408.8,547.2 401.6,562.6 398,583.3 395.8,603.5 395.3,628.5 468.2,628.5 
		472.5,624.1 471.9,573.1 469,547.6 457.3,533.2 445.5,529 	"/>
	<polygon id="XMLID_194_" class="st2" points="425.2,628.5 425.7,640.5 415.7,640.3 402.5,640.3 394.4,647.6 391.8,658.6 
		396.3,667.9 402.5,671.8 465.3,671.5 472.5,665.9 475.5,656.6 468.2,643.2 459,640.3 447.3,640.5 447.3,629.1 	"/>
	<polygon id="XMLID_178_" class="st3" points="443.4,566.1 436.4,568.3 429.7,586.8 435.7,603.5 444.2,607.4 451,605.6 458.9,595.8 
		457.3,576.8 448.9,565.5 	"/>
	<path id="XMLID_177_" class="st5" d="M416.3,628.5c0,0-7.9-61.2,17.3-81.3s35.4,0.4,35.4,0.4l-11.7-14.5l-21.6-4.2l-10.5,1.7
		l-10,9.5l-9.1,13.3l-6.5,20.7l-3.5,18.3l-0.7,36.1H416.3z"/>
	<path id="XMLID_173_" class="st3" d="M402.5,640.3c0,0,10.3,15.7,8.1,31.5l9.3,0.9l-0.6-9.6l-6.8-21.1l-1.3-1.8H402.5z"/>
	<path id="XMLID_172_" class="st3" d="M420.6,640.3c0,0,10.3,15.7,8.1,31.5l9.3,0.9l-0.6-9.6l-6.8-21.1l-1.3-1.8H420.6z"/>
	<path id="XMLID_171_" class="st3" d="M440.1,640.3c0,0,10.3,15.7,8.1,31.5l9.3,0.9l-0.6-9.6l-6.8-21.1l-1.3-1.8H440.1z"/>
	<g id="XMLID_151_">
		<path id="XMLID_350_" class="st0" d="M459.4,675.3h-51.7c-10.3,0-18.7-8.4-18.7-18.7s8.4-18.7,18.7-18.7h51.7
			c10.3,0,18.7,8.4,18.7,18.7S469.7,675.3,459.4,675.3z M407.7,643.2c-7.4,0-13.4,6-13.4,13.4s6,13.4,13.4,13.4h51.7
			c7.4,0,13.4-6,13.4-13.4s-6-13.4-13.4-13.4H407.7z"/>
	</g>
	<g id="XMLID_150_">
		<path id="XMLID_347_" class="st0" d="M474.5,631.1h-81.7l-0.1-2.5c-0.2-3.9-3.5-95.1,38.3-101.5c13.9-2.1,24.8,0.3,32.4,7.4
			c12.2,11.3,11.2,30,11.1,31.8V631.1z M397.9,625.9h71.4l0-59.9c0-0.2,1.2-17.8-9.5-27.7c-6.4-5.9-15.8-7.9-28-6
			C398.1,537.5,397.6,611.2,397.9,625.9z"/>
	</g>
	<g id="XMLID_149_">
		<path id="XMLID_344_" class="st0" d="M445.5,610c-9.1,0-16.2-10.2-16.2-23.2s7.1-23.2,16.2-23.2s16.2,10.2,16.2,23.2
			S454.6,610,445.5,610z M445.5,568.8c-5.9,0-10.9,8.2-10.9,18s5,18,10.9,18s10.9-8.2,10.9-18S451.4,568.8,445.5,568.8z"/>
	</g>
	<ellipse id="XMLID_148_" class="st0" cx="447.3" cy="589.5" rx="3.1" ry="5.9"/>
	<g id="XMLID_147_">
		<path id="XMLID_343_" class="st0" d="M425.7,643.2c-1.5,0-2.6-1.2-2.6-2.6v-12c0-1.5,1.2-2.6,2.6-2.6s2.6,1.2,2.6,2.6v12
			C428.3,642,427.1,643.2,425.7,643.2z"/>
	</g>
	<g id="XMLID_146_">
		<path id="XMLID_342_" class="st0" d="M447.3,643.2c-1.5,0-2.6-1.2-2.6-2.6v-12c0-1.5,1.2-2.6,2.6-2.6s2.6,1.2,2.6,2.6v12
			C450,642,448.8,643.2,447.3,643.2z"/>
	</g>
	<g id="XMLID_143_">
		<path id="XMLID_341_" class="st0" d="M419.9,675.3c-1.5,0-2.6-1.2-2.6-2.6c0-19.9-7.9-30.4-7.9-30.5c-0.9-1.2-0.7-2.8,0.5-3.7
			c1.1-0.9,2.8-0.7,3.7,0.5c0.4,0.5,9,11.9,9,33.7C422.6,674.1,421.4,675.3,419.9,675.3z"/>
	</g>
	<g id="XMLID_142_">
		<path id="XMLID_340_" class="st0" d="M437.8,675.3c-1.5,0-2.6-1.2-2.6-2.6c0-19.9-7.9-30.4-7.9-30.5c-0.9-1.2-0.7-2.8,0.5-3.7
			c1.1-0.9,2.8-0.7,3.7,0.5c0.4,0.5,9,11.9,9,33.7C440.4,674.1,439.3,675.3,437.8,675.3z"/>
	</g>
	<g id="XMLID_141_">
		<path id="XMLID_339_" class="st0" d="M457.3,675.3c-1.5,0-2.6-1.2-2.6-2.6c0-19.9-7.9-30.4-7.9-30.5c-0.9-1.2-0.7-2.8,0.5-3.7
			c1.1-0.9,2.8-0.7,3.7,0.5c0.4,0.5,9,11.9,9,33.7C460,674.1,458.8,675.3,457.3,675.3z"/>
	</g>
	<g id="XMLID_140_">
		<path id="XMLID_193_" class="st0" d="M408.8,582.4c-0.1,0-0.2,0-0.3,0c-0.9-0.2-1.5-1-1.3-1.9c0.2-1,4.6-23.6,15.4-35.1
			c0.6-0.7,1.7-0.7,2.4-0.1c0.7,0.6,0.7,1.7,0.1,2.4c-10.1,10.8-14.5,33.2-14.5,33.5C410.3,581.8,409.6,582.4,408.8,582.4z"/>
	</g>
	<g id="XMLID_139_">
		<path id="XMLID_174_" class="st0" d="M429.3,543c-0.4,0-0.7-0.1-1-0.3c-0.7-0.6-0.9-1.6-0.3-2.3c0.2-0.3,5.5-7,17.8-4.3
			c0.9,0.2,1.5,1.1,1.3,2s-1.1,1.5-2,1.3c-10.2-2.3-14.3,2.8-14.5,3C430.3,542.8,429.8,543,429.3,543z"/>
	</g>
</g>
<g id="Robot_2_Hand_1">
	<polygon id="XMLID_176_" class="st2" points="389,585.6 380.7,599 380.8,614.9 384.8,632.3 392.6,635.7 398.9,631.8 406.2,619.4 
		403.5,600.6 397.1,587.5 	"/>
	<path id="XMLID_175_" class="st3" d="M392.6,635.7c0,0,7.6-31.3-3.5-50.2l8.1,1.9l5,10.3l2.3,18.7l-2.8,10.2L392.6,635.7z"/>
	<g id="XMLID_145_">
		<path id="XMLID_336_" class="st0" d="M392.6,638.4c-8.3,0-14.5-11.9-14.5-27.7c0-15.8,6.2-27.7,14.5-27.7s14.5,11.9,14.5,27.7
			C407.1,626.5,400.8,638.4,392.6,638.4z M392.6,588.2c-4.4,0-9.3,9.6-9.3,22.5c0,12.9,4.9,22.5,9.3,22.5s9.3-9.6,9.3-22.5
			C401.8,597.8,396.9,588.2,392.6,588.2z"/>
	</g>
</g>
<g id="Robot_1">
	<polygon id="XMLID_197_" class="st2" points="271.6,514.2 242.5,514.2 209.9,500.9 170.2,500.9 161,512 149.1,513.9 134.7,519.1 
		126.5,528.8 125.5,541.4 125.5,581 135,581 255,581 279.2,513.9 	"/>
	<polygon id="XMLID_196_" class="st4" points="207.8,583.3 218.8,603.5 202.3,627.6 161,627.6 147.4,627.6 132.2,640.3 132.2,653.7 
		140.5,667.9 149.1,672.7 261,672.7 269.1,662.9 271.6,650.1 269.1,637.3 257,628.5 219.2,627.4 235.3,603.5 223,580.7 	"/>
	<path id="XMLID_192_" class="st3" d="M154.4,546.5c1.9-0.5,2.4-7.2,2.4-7.2l-5.4-7.7h-6.8l-6.7,6.7l3.3,9l6.2,0.4L154.4,546.5z"/>
	<polygon id="XMLID_191_" class="st3" points="125.5,568.3 259.3,568.3 261.8,562.6 125.7,562.6 	"/>
	<path id="XMLID_190_" class="st5" d="M220,562.6c0,0,33.5-8,41.8-48.4l17.4-0.2l-20,48.6H220z"/>
	<polygon id="XMLID_187_" class="st5" points="168,657.3 170.2,650.1 164.7,639.6 156.8,637.4 146.1,644.2 145.1,653.7 152.6,662 
		164.7,662.9 	"/>
	<polygon id="XMLID_186_" class="st5" points="212.2,657.3 214.5,650.1 209,639.6 201.1,637.4 190.3,644.2 189.4,653.7 196.9,662 
		209,662.9 	"/>
	<polygon id="XMLID_185_" class="st5" points="256.8,657.3 259,650.1 253.5,639.6 245.6,637.4 234.9,644.2 233.9,653.7 241.4,662 
		253.5,662.9 	"/>
	<circle id="XMLID_184_" class="st3" cx="157.7" cy="650.1" r="4.2"/>
	<circle id="XMLID_183_" class="st3" cx="202.5" cy="650.1" r="4.2"/>
	<circle id="XMLID_182_" class="st3" cx="246.5" cy="650.1" r="4.2"/>
	<g id="XMLID_181_">
		<polygon class="st5" points="223,580.7 208.1,581 218.8,603.5 226.7,614.9 235.3,603.5 		"/>
	</g>
	<path id="XMLID_180_" class="st3" d="M135.8,662.9c0,0-1.5-25.5,21-25.5s46.4,0,46.4,0v-9.8h-46.3h-9.5l-9.1,6.8l-6,5.9v9.8
		L135.8,662.9z"/>
	<path id="XMLID_179_" class="st3" d="M269.6,662.9c0,0,1.5-25.5-21-25.5s-46.4,0-46.4,0v-9.8h46.3h9.5l9.1,6.8l6,5.9v9.8
		L269.6,662.9z"/>
	<g id="XMLID_165_">
		<path id="XMLID_311_" class="st0" d="M257.1,583.7H123v-45.5c-0.3-1.7-1.2-9.4,4.4-16.3c5.7-7.1,16.2-10.7,31.1-10.7h124.6
			L257.1,583.7z M128.4,578.3h124.9l22.1-61.7h-117c-13,0-22.3,3-26.9,8.7c-4.5,5.6-3.2,12-3.2,12.1l0.1,0.3V578.3z"/>
	</g>
	<g id="XMLID_164_">
		<path id="XMLID_314_" class="st0" d="M261.8,565.3H125.7c-1.5,0-2.7-1.2-2.7-2.7s1.2-2.7,2.7-2.7h136.1c1.5,0,2.7,1.2,2.7,2.7
			S263.3,565.3,261.8,565.3z"/>
	</g>
	<g id="XMLID_163_">
		<path id="XMLID_315_" class="st0" d="M147.4,552.3c-6.7,0-12.2-5.5-12.2-12.2s5.5-12.2,12.2-12.2c6.7,0,12.2,5.5,12.2,12.2
			S154.1,552.3,147.4,552.3z M147.4,533.3c-3.7,0-6.8,3-6.8,6.8s3,6.8,6.8,6.8c3.7,0,6.8-3,6.8-6.8S151.1,533.3,147.4,533.3z"/>
	</g>
	<g id="XMLID_161_">
		<path id="XMLID_323_" class="st0" d="M250.6,675.4h-96.2c-13.9,0-25.2-11.3-25.2-25.2s11.3-25.2,25.2-25.2h96.2
			c13.9,0,25.2,11.3,25.2,25.2S264.5,675.4,250.6,675.4z M154.4,630.3c-10.9,0-19.8,8.9-19.8,19.8s8.9,19.8,19.8,19.8h96.2
			c10.9,0,19.8-8.9,19.8-19.8s-8.9-19.8-19.8-19.8H154.4z"/>
	</g>
	<g id="XMLID_160_">
		<path id="XMLID_332_" class="st0" d="M157.4,665.6c-8.5,0-15.5-6.9-15.5-15.5s6.9-15.5,15.5-15.5s15.5,6.9,15.5,15.5
			S165.9,665.6,157.4,665.6z M157.4,640c-5.6,0-10.1,4.5-10.1,10.1s4.5,10.1,10.1,10.1s10.1-4.5,10.1-10.1S163,640,157.4,640z"/>
	</g>
	<g id="XMLID_159_">
		<path id="XMLID_329_" class="st0" d="M246.5,665.6c-8.5,0-15.5-6.9-15.5-15.5s6.9-15.5,15.5-15.5s15.5,6.9,15.5,15.5
			S255,665.6,246.5,665.6z M246.5,640c-5.6,0-10.1,4.5-10.1,10.1s4.5,10.1,10.1,10.1s10.1-4.5,10.1-10.1S252,640,246.5,640z"/>
	</g>
	<g id="XMLID_158_">
		<path id="XMLID_326_" class="st0" d="M202.3,665.6c-8.5,0-15.5-6.9-15.5-15.5s6.9-15.5,15.5-15.5s15.5,6.9,15.5,15.5
			S210.9,665.6,202.3,665.6z M202.3,640c-5.6,0-10.1,4.5-10.1,10.1s4.5,10.1,10.1,10.1s10.1-4.5,10.1-10.1S207.9,640,202.3,640z"/>
	</g>
	<g id="XMLID_157_">
		<path id="XMLID_322_" class="st0" d="M202.3,630.3c-0.5,0-1.1-0.2-1.5-0.5c-1.2-0.8-1.5-2.5-0.7-3.8l15.6-22.7l-11.5-21.1
			c-0.7-1.3-0.2-2.9,1.1-3.7c1.3-0.7,2.9-0.2,3.7,1.1l13.1,24l-17.4,25.4C204.1,629.9,203.2,630.3,202.3,630.3z"/>
	</g>
	<g id="XMLID_156_">
		<path id="XMLID_321_" class="st0" d="M218.8,630.3c-0.5,0-1.1-0.2-1.5-0.5c-1.2-0.8-1.5-2.5-0.7-3.8l15.6-22.7l-11.5-21.1
			c-0.7-1.3-0.2-2.9,1.1-3.7c1.3-0.7,2.9-0.2,3.7,1.1l13.1,24l-17.4,25.4C220.5,629.9,219.7,630.3,218.8,630.3z"/>
	</g>
	<g id="XMLID_155_">
		<path id="XMLID_319_" class="st0" d="M235.3,526.9h-69.6c-0.9,0-1.7-0.8-1.7-1.7s0.8-1.7,1.7-1.7h69.6c0.9,0,1.7,0.8,1.7,1.7
			S236.3,526.9,235.3,526.9z"/>
	</g>
	<g id="XMLID_154_">
		<path id="XMLID_318_" class="st0" d="M253.3,526.9h-10.9c-0.9,0-1.7-0.8-1.7-1.7s0.8-1.7,1.7-1.7h10.9c0.9,0,1.7,0.8,1.7,1.7
			S254.3,526.9,253.3,526.9z"/>
	</g>
	<g id="XMLID_153_">
		<path id="XMLID_335_" class="st0" d="M227.1,617.3c-0.5,0-1.1-0.3-1.4-0.7l-8.2-12c-0.5-0.8-0.3-1.8,0.4-2.4
			c0.8-0.5,1.8-0.3,2.4,0.4l8.2,12c0.5,0.8,0.3,1.8-0.4,2.4C227.8,617.2,227.4,617.3,227.1,617.3z"/>
	</g>
	<g id="XMLID_152_">
		<path id="XMLID_320_" class="st0" d="M247.9,515.6c-0.2,0-0.4,0-0.6-0.1l-37.7-12.9H171l-11.2,12.5c-0.6,0.7-1.7,0.8-2.4,0.1
			c-0.7-0.6-0.8-1.7-0.1-2.4l12.3-13.6h40.7l0.3,0.1l38,13c0.9,0.3,1.4,1.3,1.1,2.2C249.3,515.2,248.6,515.6,247.9,515.6z"/>
	</g>
</g>
<g id="Robot_1_Hand">
	<polygon id="XMLID_189_" class="st4" points="202.3,547.6 187.4,556.8 172.3,574.1 166.3,586.8 167.3,594.7 173.3,595.4 
		191.1,583.6 203.2,569.2 209.5,555.4 207.3,547.6 	"/>
	<path id="XMLID_188_" class="st5" d="M165.8,589.5c0,0,26.8-15,36.6-41.9h4.9l0.8,10.9l-4.9,10.7l-16.2,18.2l-9.1,5l-7.3,3.4
		L165.8,589.5z"/>
	<g id="XMLID_162_">
		<path id="XMLID_308_" class="st0" d="M170.6,598.5c-1.9,0-3.7-0.5-5-1.8c-6.6-5.8,1.1-21.6,12.2-34.1
			c11.1-12.5,25.8-22.2,32.4-16.3c6.6,5.8-1.1,21.6-12.2,34.1l0,0C189.1,590.4,178.1,598.5,170.6,598.5z M205.1,549.9
			c-3.8,0-13,4.6-23.3,16.3c-12.1,13.7-14.7,24.7-12.7,26.5c2.1,1.8,12.6-2.1,24.8-15.8l0,0c12.1-13.7,14.7-24.7,12.7-26.5
			C206.3,550.1,205.8,549.9,205.1,549.9z"/>
	</g>
</g>
<g id="Right_Foot">
	<polygon id="XMLID_115_" class="st6" points="371.6,585.6 362.4,621 351.2,638.2 335.5,646.4 328.1,653.7 335.5,616.4 342.3,589.5 
		371.6,583.3 	"/>
	<polygon id="XMLID_114_" class="st7" points="323.5,669.5 328.1,653.7 345.8,641.9 355.6,642 364.7,644.7 370.8,650.7 375,658.6 
		375.2,672.7 330.4,672.7 	"/>
	<path id="XMLID_71_" class="st8" d="M351.6,588.9c0,0-4.1,31.3-16,57.5l-7.5,7.3l10.1-48.4l1.8-14.4L351.6,588.9z"/>
	<path id="XMLID_70_" class="st7" d="M362.4,586.8c0,0-6.1,32.2-22.5,57.5l9.5-3.7l11.9-17.9l10.3-37L362.4,586.8z"/>
	<polygon id="XMLID_69_" class="st9" points="364.7,612 336.1,614.9 336.1,621 361.1,617.9 	"/>
	<polygon id="XMLID_66_" class="st9" points="351.6,642 357.6,661 355.8,672.7 375.2,672.7 375.8,661.3 370.8,650.7 361.7,643.8 	
		"/>
	<g id="XMLID_236_">
		<g id="XMLID_32_">
			<path id="XMLID_303_" class="st1" d="M324,675.3c-1.3,0-2.5-1-2.6-2.3c-0.1-0.5-1.4-13.5,6.8-23.3c5.2-6.2,13-9.7,23.1-10.3
				c8.3-0.5,14.8,1.7,19.5,6.6c9.3,9.7,7.5,26.3,7.4,27c-0.2,1.4-1.5,2.5-2.9,2.3c-1.4-0.2-2.5-1.5-2.3-2.9c0-0.2,1.5-14.9-6-22.8
				c-3.6-3.7-8.7-5.4-15.3-5c-8.6,0.6-15.2,3.4-19.4,8.5c-6.8,8.1-5.6,19.2-5.6,19.3c0.2,1.4-0.9,2.7-2.3,2.9
				C324.2,675.3,324.1,675.3,324,675.3z"/>
		</g>
		<g id="XMLID_31_">
			<path id="XMLID_301_" class="st1" d="M326,661.3c-0.2,0-0.4,0-0.6-0.1c-1.4-0.3-2.3-1.8-2-3.2l16.1-68.5l35.5-9.8l-0.4,3.8
				c-0.1,1.4-3.8,34.6-22.7,58.6c-0.9,1.1-2.5,1.3-3.7,0.4c-1.1-0.9-1.3-2.6-0.4-3.7c14.3-18.2,19.5-42.6,21.1-52l-24.9,6.9
				l-15.4,65.4C328.2,660.5,327.2,661.3,326,661.3z"/>
		</g>
		<g id="XMLID_30_">
			<path id="XMLID_300_" class="st1" d="M336.1,623.6c-1.3,0-2.5-1-2.6-2.3c-0.2-1.4,0.9-2.7,2.3-2.9l26.6-3.1
				c1.4-0.2,2.7,0.9,2.9,2.3c0.2,1.4-0.9,2.7-2.3,2.9l-26.6,3.1C336.3,623.6,336.2,623.6,336.1,623.6z"/>
		</g>
	</g>
	<g id="XMLID_16_">
		<path id="XMLID_299_" class="st1" d="M357.4,675.4c-0.1,0-0.1,0-0.2,0c-1.5-0.1-2.7-1.4-2.6-2.9c1.3-22.5-4.9-28.4-5-28.5
			c-1.2-0.9-1.3-2.6-0.4-3.8c0.9-1.2,2.7-1.3,3.9-0.4c0.9,0.7,8.5,7.6,7,33C360,674.3,358.8,675.4,357.4,675.4z"/>
	</g>
</g>
<g id="Left_Feet">
	<polygon id="XMLID_117_" class="st6" points="242.9,585.6 252.2,621 263.4,638.2 279,646.4 286.5,653.7 279,616.4 272.3,589.5 
		242.9,583.3 	"/>
	<polygon id="XMLID_116_" class="st7" points="291,669.5 286.5,653.7 268.7,641.9 258.9,642 249.8,644.7 243.7,650.7 239.6,658.6 
		239.3,672.7 284.1,672.7 	"/>
	<path id="XMLID_74_" class="st8" d="M263,588.9c0,0,4.1,31.3,16,57.5l7.5,7.3l-10.1-48.4l-1.8-14.4L263,588.9z"/>
	<path id="XMLID_73_" class="st7" d="M252.2,586.8c0,0,6.1,32.2,22.5,57.5l-9.5-3.7l-11.9-17.9l-10.3-37L252.2,586.8z"/>
	<polygon id="XMLID_72_" class="st9" points="249.8,612 278.4,614.9 278.4,621 253.5,617.9 	"/>
	<polygon id="XMLID_68_" class="st9" points="284.8,663.1 239.3,663.1 239.3,672.7 290.9,672.7 290.9,663.2 	"/>
	<path id="XMLID_67_" class="st9" d="M252.2,663.1c0,0-1.6-17.4,8.6-21.1c10.2-3.8-1.8,0-1.8,0l-10.9,4l-5.9,7.7l-2.8,9.4H252.2z"/>
	<g id="XMLID_240_">
		<g id="XMLID_35_">
			<path id="XMLID_298_" class="st1" d="M239.3,675.3c-1.3,0-2.5-1-2.6-2.3c-0.1-0.7-1.8-17.3,7.4-27c4.7-4.9,11.2-7.1,19.5-6.6
				c10.1,0.6,17.9,4.1,23.1,10.3c8.2,9.8,6.8,22.8,6.8,23.3c-0.2,1.4-1.5,2.5-2.9,2.3c-1.4-0.2-2.5-1.5-2.3-2.9
				c0-0.1,1.1-11.3-5.6-19.4c-4.2-5-10.8-7.9-19.4-8.4c-6.6-0.4-11.8,1.3-15.4,5c-7.6,8-6,22.7-6,22.8c0.2,1.4-0.9,2.7-2.3,2.9
				C239.5,675.3,239.4,675.3,239.3,675.3z"/>
		</g>
		<g id="XMLID_34_">
			<path id="XMLID_297_" class="st1" d="M289,661.3c-1.2,0-2.3-0.8-2.6-2L271,593.8l-24.9-6.9c1.6,9.4,6.8,33.8,21.1,52
				c0.9,1.1,0.7,2.8-0.4,3.7c-1.1,0.9-2.8,0.7-3.7-0.4c-18.9-24-22.6-57.2-22.7-58.6l-0.4-3.8l35.5,9.8l16.1,68.5
				c0.3,1.4-0.5,2.8-2,3.2C289.4,661.2,289.2,661.3,289,661.3z"/>
		</g>
		<g id="XMLID_33_">
			<path id="XMLID_296_" class="st1" d="M278.4,623.6c-0.1,0-0.2,0-0.3,0l-26.2-3.1c-1.4-0.2-2.5-1.5-2.3-2.9
				c0.2-1.4,1.5-2.5,2.9-2.3l26.2,3.1c1.4,0.2,2.5,1.5,2.3,2.9C280.8,622.6,279.7,623.6,278.4,623.6z"/>
		</g>
	</g>
	<g id="XMLID_29_">
		<path id="XMLID_295_" class="st1" d="M289.5,665.7h-49.9c-1.5,0-2.6-1.2-2.6-2.6s1.2-2.6,2.6-2.6h49.9c1.5,0,2.6,1.2,2.6,2.6
			S290.9,665.7,289.5,665.7z"/>
	</g>
</g>
<g id="Body_2">
	<polygon id="XMLID_121_" class="st9" points="314.9,529.7 302.3,530.6 289,541.2 286.5,555.4 295.5,568.9 308.2,573.1 317.1,571.1 
		327.7,560.8 327.7,542 	"/>
	<path id="XMLID_120_" class="st7" d="M251.2,575.5h113.9l-4.6,4.8l-17.7,6.5c0,0-33,34.1-68.2,1.3l-18.9-7.9L251.2,575.5z"/>
	<polygon id="XMLID_119_" class="st9" points="268,573.1 261.4,560.6 255.8,556.8 249.8,557.8 244.2,563.6 243.1,570 248,575.1 	"/>
	<polygon id="XMLID_118_" class="st9" points="349,571.3 357.6,558.3 365.1,558.3 371.5,562.4 373.4,568.9 371.5,573.4 354.5,574.1 
			"/>
	<polygon id="XMLID_81_" class="st10" points="311.6,547.3 304.4,547.3 299.6,552.8 300.4,561 305.6,565.4 311.7,563.6 315.5,560.5 
		316.6,555.4 316.6,550.5 	"/>
	<circle id="XMLID_80_" class="st11" cx="308.1" cy="555.4" r="3.1"/>
	<path id="XMLID_79_" class="st7" d="M287.6,550.4c0,0,17.9-27.7,41.8,1.5l-1.8-9.5l-6.6-8.3l-8.5-5.3l-11,0.7l-10.6,8L287.6,550.4z
		"/>
	<path id="XMLID_78_" class="st10" d="M255.5,574.3c0,0-9-11.9,0.3-17.5l-8.6,2.8l-4.2,7.4l1.5,6.1l3.4,2L255.5,574.3z"/>
	<path id="XMLID_77_" class="st6" d="M265.9,575.5l16.3,8.2c0,0,8.8,10.1,24.8,8.8l1.4,9.9l-19-3l-17.9-12.6l-12.6-5.2l-6.8-6.1
		H265.9z"/>
	<path id="XMLID_76_" class="st10" d="M362,574.3c0,0,9-11.9-0.3-17.5l8.6,2.8l4.2,7.4l-1.5,6.1l-3.4,2L362,574.3z"/>
	<path id="XMLID_75_" class="st6" d="M351.5,575.5l-16.3,8.2c0,0-8.8,10.1-24.8,8.8l-1.4,9.9l19-3l17.9-12.6l12.6-5.2l6.8-6.1H351.5
		z"/>
	<g id="XMLID_54_">
		<path id="XMLID_123_" class="st1" d="M308.2,575.7c-13.4,0-24.3-10.9-24.3-24.3s10.9-24.3,24.3-24.3s24.3,10.9,24.3,24.3
			S321.6,575.7,308.2,575.7z M308.2,532.3c-10.5,0-19.1,8.6-19.1,19.1c0,10.5,8.6,19.1,19.1,19.1c10.5,0,19.1-8.6,19.1-19.1
			C327.2,540.9,318.7,532.3,308.2,532.3z"/>
	</g>
	<g id="XMLID_247_">
		<g id="XMLID_39_">
			<path id="XMLID_286_" class="st1" d="M310.8,605.4h-2.6c-22.6,0-32.9-12.1-35.3-15.3l-23.2-9.7c-1.8-0.7-2.8-2.6-2.4-4.5
				c0.4-1.9,2-3.2,3.9-3.2h59.6V605.4z M257.5,578.1l18.9,7.8l0.4,0.7c0.3,0.5,8.3,12.5,28.7,13.5v-22H257.5z"/>
		</g>
		<g id="XMLID_38_">
			<path id="XMLID_283_" class="st1" d="M272.1,578.1h-20.9c-7.8,0-10.7-4.7-10.9-9.1c-0.3-6.5,5.2-14.2,12.9-14.8
				c12.5-1,17.8,19.7,18.1,20.6L272.1,578.1z M254,559.5c-0.1,0-0.3,0-0.4,0c-4.6,0.4-8.2,5.4-8,9.3c0.1,2.7,2,4,5.6,4h13.9
				C263.2,567.4,259.2,559.5,254,559.5z"/>
		</g>
	</g>
	<g id="XMLID_244_">
		<g id="XMLID_37_">
			<path id="XMLID_292_" class="st1" d="M308.2,605.4h-2.6v-32.6h59.6c1.9,0,3.5,1.3,3.9,3.2c0.4,1.9-0.6,3.7-2.4,4.5l-23.2,9.7
				C341.1,593.3,330.7,605.4,308.2,605.4z M310.8,578.1v22c20.6-1,28.6-13.3,28.7-13.5l0.4-0.7l18.9-7.8H310.8z"/>
		</g>
		<g id="XMLID_36_">
			<path id="XMLID_289_" class="st1" d="M365.1,578.1h-20.9l0.8-3.3c0.2-0.9,5.6-21.5,18.1-20.6c7.7,0.6,13.1,8.3,12.9,14.8
				C375.9,573.4,372.9,578.1,365.1,578.1z M351.2,572.8h13.9c3.6,0,5.5-1.4,5.6-4c0.2-3.9-3.4-8.9-8-9.3
				C357.4,559,353.2,567.3,351.2,572.8z"/>
		</g>
	</g>
	<g id="XMLID_10_">
		<path id="XMLID_280_" class="st1" d="M308.2,566c-5.8,0-10.6-4.8-10.6-10.6s4.8-10.6,10.6-10.6c5.8,0,10.6,4.8,10.6,10.6
			S314,566,308.2,566z M308.2,548.1c-4,0-7.3,3.3-7.3,7.3s3.3,7.3,7.3,7.3s7.3-3.3,7.3-7.3S312.2,548.1,308.2,548.1z"/>
	</g>
</g>
<g id="Left_Arm">
	<polygon id="XMLID_129_" class="st6" points="248,438.9 223.2,451.8 207.9,464.2 216.6,496.1 248,484.8 	"/>
	<polygon id="XMLID_128_" class="st9" points="184.5,467.5 180.8,475.4 180.8,487.8 195,495.1 202.5,493.1 209.6,483.7 207.9,472.5 
		199.4,466.1 	"/>
	<polygon id="XMLID_127_" class="st6" points="159.4,413.7 127.3,435.6 134.6,448 152,465.2 173.3,475.4 191.5,459 	"/>
	<path id="XMLID_126_" class="st7" d="M127.3,435.6l10.6-23.3l-23-3.3C114.9,409,104.9,428.7,127.3,435.6z"/>
	<path id="XMLID_94_" class="st7" d="M211,475.4c0,0,14.8-16.1,35-19.1V440l-12.2,5.5l-20.4,12.2l-5.5,4.6L211,475.4z"/>
	<path id="XMLID_93_" class="st8" d="M215,490.3c0,0,32.2-2.8,33.3-34l-1.3,28.4l-15.4,6l-15.1,5.4L215,490.3z"/>
	<path id="XMLID_90_" class="st10" d="M194.2,465.2c0,0,0.3,19.7,11.6,23.5l-4.3,4.4l-5.6-5.7l-4.4-9.4l-1.9-8.9l0.2-3.1
		L194.2,465.2z"/>
	<g id="XMLID_302_">
		<polygon id="XMLID_87_" class="st9" points="148.5,422.3 169.1,450.2 168.9,473.2 173.3,475.4 173.3,447.6 152,418.1 		"/>
		<path id="XMLID_86_" class="st8" d="M143.7,422.3c0,0-18.7,17.8,25.1,50.9l-22.6-11.4L134.6,448l-7.3-12.4L143.7,422.3z"/>
		<path id="XMLID_85_" class="st9" d="M114.9,409c0,0,2.2,14.2,15.7,14.6l-5.3,12.1l-9.2-4.1l-4.6-6.8l0.2-8.9L114.9,409z"/>
	</g>
	<g id="XMLID_274_">
		<g id="XMLID_62_">
			<path id="XMLID_5_" class="st1" d="M214.9,499.6l-9.9-36.2l1.1-1.1c0.7-0.7,16.6-16.8,41.1-25.9c1.4-0.5,2.9,0.2,3.4,1.6
				s-0.2,2.9-1.6,3.4c-19.9,7.4-34.2,19.9-38.1,23.6l7.6,27.7l28.7-10.4c1.4-0.5,2.9,0.2,3.4,1.6c0.5,1.4-0.2,2.9-1.6,3.4
				L214.9,499.6z"/>
		</g>
		<g id="XMLID_61_">
			<path id="XMLID_8_" class="st1" d="M195,497.8c-9.7,0-17.6-7.9-17.6-17.6c0-9.7,7.9-17.6,17.6-17.6s17.6,7.9,17.6,17.6
				C212.7,489.9,204.8,497.8,195,497.8z M195,467.8c-6.8,0-12.4,5.5-12.4,12.4c0,6.8,5.5,12.4,12.4,12.4s12.4-5.5,12.4-12.4
				C207.4,473.3,201.9,467.8,195,467.8z"/>
		</g>
		<g id="XMLID_60_">
			<path id="XMLID_58_" class="st1" d="M173.9,478.4l-1.5-0.5c-1.4-0.5-35.5-12.7-47.5-41.2l-0.8-2l36-24.5l34.9,49.2L173.9,478.4z
				 M130.6,436.5c10.4,21.9,35.8,33.2,42.1,35.8l15.3-13.8l-29.2-41.2L130.6,436.5z"/>
		</g>
		<g id="XMLID_59_">
			<path id="XMLID_91_" class="st1" d="M128.8,438.7l-2.1-0.5c-8.5-2-14.1-5.8-16.4-11.5c-3.7-8.9,2.1-18.6,2.4-19.1l0.9-1.5l28.2,4
				L128.8,438.7z M116.4,411.9c-1.2,2.6-3.2,8.1-1.2,12.8c1.5,3.6,5.1,6.2,10.7,7.8l8.2-18.1L116.4,411.9z"/>
		</g>
	</g>
	<g id="XMLID_9_">
		<path id="XMLID_57_" class="st1" d="M202.5,494.8c-0.3,0-0.6-0.1-0.9-0.3c-16.3-10.4-13.5-28.5-13.4-28.7c0.2-0.9,1-1.5,1.9-1.4
			c0.9,0.2,1.5,1,1.4,1.9c-0.1,0.7-2.5,16.2,11.9,25.4c0.8,0.5,1,1.5,0.5,2.3C203.6,494.5,203.1,494.8,202.5,494.8z"/>
	</g>
	<g id="XMLID_205_">
		<g id="XMLID_7_">
			<path id="XMLID_84_" class="st1" d="M173.3,477c-0.9,0-1.7-0.7-1.7-1.7v-26.8l-20.9-28.8c-0.5-0.7-0.4-1.8,0.4-2.3
				c0.7-0.5,1.8-0.4,2.3,0.4l21.5,29.7v27.9C174.9,476.3,174.2,477,173.3,477z"/>
		</g>
		<g id="XMLID_6_">
			<path id="XMLID_89_" class="st1" d="M143.7,435.4c-0.5,0-1-0.2-1.4-0.7c-0.5-0.8-0.4-1.8,0.4-2.3l12.7-9c0.8-0.5,1.8-0.3,2.3,0.4
				c0.5,0.8,0.4,1.8-0.4,2.3l-12.7,9C144.4,435.3,144.1,435.4,143.7,435.4z"/>
		</g>
	</g>
</g>
<g id="Right_Arm">
	<polygon id="XMLID_278_" class="st6" points="368.3,438.9 393.1,451.8 408.4,464.2 399.6,496.1 368.3,484.8 	"/>
	<polygon id="XMLID_277_" class="st9" points="431.7,467.5 435.4,475.4 435.4,487.8 421.2,495.1 413.7,493.1 406.7,483.7 
		408.4,472.5 416.8,466.1 	"/>
	<polygon id="XMLID_276_" class="st6" points="456.9,413.7 488.9,435.6 481.6,448 464.2,465.2 443,475.4 424.8,459 	"/>
	<path id="XMLID_275_" class="st7" d="M488.9,435.6l-10.6-23.3l23-3.3C501.3,409,511.4,428.7,488.9,435.6z"/>
	<path id="XMLID_273_" class="st7" d="M405.3,475.4c0,0-14.8-16.1-35-19.1V440l12.2,5.5l20.4,12.2l5.5,4.6L405.3,475.4z"/>
	<path id="XMLID_272_" class="st8" d="M401.2,490.3c0,0-32.2-2.8-33.3-34l1.3,28.4l15.4,6l15.1,5.4L401.2,490.3z"/>
	<path id="XMLID_271_" class="st10" d="M422.1,465.2c0,0-0.3,19.7-11.6,23.5l4.3,4.4l5.6-5.7l4.4-9.4l1.9-8.9l-0.2-3.1L422.1,465.2z
		"/>
	<g id="XMLID_267_">
		<polygon id="XMLID_270_" class="st9" points="467.8,422.3 447.2,450.2 447.4,473.2 443,475.4 443,447.6 464.2,418.1 		"/>
		<path id="XMLID_269_" class="st8" d="M472.5,422.3c0,0,18.7,17.8-25.1,50.9l22.6-11.4l11.6-13.9l7.3-12.4L472.5,422.3z"/>
		<path id="XMLID_268_" class="st9" d="M501.3,409c0,0-2.2,14.2-15.7,14.6l5.3,12.1l9.2-4.1l4.6-6.8l-0.2-8.9L501.3,409z"/>
	</g>
	<g id="XMLID_250_">
		<g id="XMLID_265_">
			<path id="XMLID_266_" class="st1" d="M401.4,499.6l9.9-36.2l-1.1-1.1c-0.7-0.7-16.6-16.8-41.1-25.9c-1.4-0.5-2.9,0.2-3.4,1.6
				s0.2,2.9,1.6,3.4c19.9,7.4,34.2,19.9,38.1,23.6l-7.6,27.7l-28.7-10.4c-1.4-0.5-2.9,0.2-3.4,1.6c-0.5,1.4,0.2,2.9,1.6,3.4
				L401.4,499.6z"/>
		</g>
		<g id="XMLID_259_">
			<path id="XMLID_260_" class="st1" d="M403.6,480.1c0-9.7,7.9-17.6,17.6-17.6s17.6,7.9,17.6,17.6c0,9.7-7.9,17.6-17.6,17.6
				S403.6,489.9,403.6,480.1z M408.9,480.1c0,6.8,5.5,12.4,12.4,12.4s12.4-5.5,12.4-12.4c0-6.8-5.5-12.4-12.4-12.4
				S408.9,473.3,408.9,480.1z"/>
		</g>
		<g id="XMLID_255_">
			<path id="XMLID_256_" class="st1" d="M421.3,459.3l34.9-49.2l36,24.5l-0.8,2c-12,28.5-46.1,40.7-47.5,41.2l-1.5,0.5L421.3,459.3z
				 M457.5,417.4l-29.2,41.2l15.3,13.8c6.3-2.5,31.7-13.9,42.1-35.8L457.5,417.4z"/>
		</g>
		<g id="XMLID_251_">
			<path id="XMLID_252_" class="st1" d="M474.5,410.2l28.2-4l0.9,1.5c0.3,0.4,6.1,10.1,2.4,19.1c-2.4,5.6-7.9,9.5-16.4,11.5
				l-2.1,0.5L474.5,410.2z M482.2,414.4l8.2,18.1c5.6-1.6,9.2-4.3,10.7-7.8c2-4.7,0-10.2-1.2-12.8L482.2,414.4z"/>
		</g>
	</g>
	<g id="XMLID_248_">
		<path id="XMLID_249_" class="st1" d="M413.7,494.8c0.3,0,0.6-0.1,0.9-0.3c16.3-10.4,13.5-28.5,13.4-28.7c-0.2-0.9-1-1.5-1.9-1.4
			c-0.9,0.2-1.5,1-1.4,1.9c0.1,0.7,2.5,16.2-11.9,25.4c-0.8,0.5-1,1.5-0.5,2.3C412.6,494.5,413.2,494.8,413.7,494.8z"/>
	</g>
	<g id="XMLID_125_">
		<g id="XMLID_245_">
			<path id="XMLID_246_" class="st1" d="M443,477c0.9,0,1.7-0.7,1.7-1.7v-26.8l20.9-28.8c0.5-0.7,0.4-1.8-0.4-2.3
				c-0.7-0.5-1.8-0.4-2.3,0.4l-21.5,29.7v27.9C441.3,476.3,442.1,477,443,477z"/>
		</g>
		<g id="XMLID_198_">
			<path id="XMLID_202_" class="st1" d="M472.5,435.4c0.5,0,1-0.2,1.4-0.7c0.5-0.8,0.4-1.8-0.4-2.3l-12.7-9
				c-0.8-0.5-1.8-0.3-2.3,0.4c-0.5,0.8-0.4,1.8,0.4,2.3l12.7,9C471.9,435.3,472.2,435.4,472.5,435.4z"/>
		</g>
	</g>
</g>
<g id="Body">
	<polygon id="XMLID_131_" class="st7" points="248,438.9 248,518.1 252.2,525.3 261.1,529.7 355.2,529.7 366.5,523.2 368.3,511.7 
		368.3,438.9 348,430.5 329.9,426.4 306.7,426.4 288.1,426.5 260.3,433.8 	"/>
	<rect id="XMLID_103_" x="274.6" y="487.4" class="st9" width="67.1" height="24.7"/>
	<polygon id="XMLID_102_" class="st11" points="291.1,501.6 291.1,497.2 287,495.1 282.3,498.4 282.3,502.1 287,505.7 	"/>
	<polygon id="XMLID_101_" class="st6" points="308.2,514.2 319.1,530.1 331.7,529 319.9,514.2 	"/>
	<polygon id="XMLID_100_" class="st9" points="324,448 315.5,470.2 336.1,470.2 	"/>
	<path id="XMLID_99_" class="st9" d="M248,460.6c0,0-1.8-27.6,73.7-35.8l-23.4,0.5l-16.3,1.1l-26.1,9.2l-6,3.3L248,460.6z"/>
	<path id="XMLID_98_" class="st9" d="M249.8,460.6c0,0-1.7,50.7,9.8,57.5c12.9,7.6,31.4,10.9,31.4,10.9l-26.4,1.1l-9.2-1.6l-5.7-5.2
		l-1.5-13.2L249.8,460.6z"/>
	<path id="XMLID_97_" class="st6" d="M326.8,522.1H345c0,0,13.7,0.8,13.9-14.2c0.3-16.2,1.6-72.3,1.6-72.3l7.8,3.2v77.7l-1.8,6.7
		l-6,5.3l-17.7,1.5l-11.1-1.1L326.8,522.1z"/>
	<polygon id="XMLID_96_" class="st12" points="274.6,493.1 342.8,493.1 343.6,487.4 275.7,487.4 	"/>
	<polygon id="XMLID_95_" class="st7" points="306.7,511.7 342.8,499.7 342.8,512.1 	"/>
	<polygon id="XMLID_88_" class="st10" points="324,450.2 324,469.9 315.5,470.2 	"/>
	<g id="XMLID_63_">
		<path id="XMLID_225_" class="st1" d="M355.2,532.3h-94.1c-8.7,0-15.8-7.1-15.8-15.8v-79.3l1.5-0.7c35.7-16.7,67.1-15.8,87.2-12.1
			c21.8,4,35.1,11.9,35.6,12.2l1.3,0.8v79.1C371,525.3,363.9,532.3,355.2,532.3z M250.6,440.6v76c0,5.8,4.7,10.5,10.5,10.5h94.1
			c5.8,0,10.5-4.7,10.5-10.5v-76.1c-3.8-2-15.6-7.8-32.8-10.9C313.9,426.1,284.3,425.3,250.6,440.6z"/>
	</g>
	<g id="XMLID_52_">
		<path id="XMLID_234_" class="st1" d="M345.4,514.6h-72.4v-29.9h72.4V514.6z M278.3,509.4h61.8V490h-61.8V509.4z"/>
	</g>
	<g id="XMLID_44_">
		<path id="XMLID_230_" class="st1" d="M338.9,471.6h-26.5l11.6-27.4L338.9,471.6z M317.4,468.2h15.8l-8.9-16.4L317.4,468.2z"/>
	</g>
	<g id="XMLID_14_">
		<path id="XMLID_223_" class="st1" d="M258.9,446.2c-0.6,0-1.2-0.3-1.5-0.9c-0.4-0.8-0.2-1.8,0.6-2.3c0.9-0.5,21.2-11.5,61-11
			c0.9,0,1.7,0.8,1.6,1.7c0,0.9-0.8,1.6-1.7,1.6c-38.7-0.6-59.1,10.4-59.3,10.5C259.5,446.1,259.2,446.2,258.9,446.2z"/>
	</g>
	<g id="XMLID_13_">
		<path id="XMLID_238_" class="st1" d="M287,507c-3.7,0-6.8-3-6.8-6.8c0-3.7,3-6.8,6.8-6.8c3.7,0,6.8,3,6.8,6.8
			C293.8,504,290.8,507,287,507z M287,496.8c-1.9,0-3.4,1.5-3.4,3.4c0,1.9,1.5,3.4,3.4,3.4c1.9,0,3.4-1.5,3.4-3.4
			C290.5,498.4,288.9,496.8,287,496.8z"/>
	</g>
	<g id="XMLID_12_">
		<path id="XMLID_243_" class="st1" d="M319.1,531.4c-0.5,0-1-0.2-1.4-0.7l-12.4-17.6c-0.5-0.8-0.3-1.8,0.4-2.3
			c0.8-0.5,1.8-0.4,2.3,0.4l12.4,17.6c0.5,0.8,0.3,1.8-0.4,2.3C319.8,531.3,319.4,531.4,319.1,531.4z"/>
	</g>
	<g id="XMLID_11_">
		<path id="XMLID_242_" class="st1" d="M332.2,531.4c-0.5,0-1-0.2-1.4-0.7l-12.4-17.6c-0.5-0.8-0.3-1.8,0.4-2.3
			c0.8-0.5,1.8-0.4,2.3,0.4l12.4,17.6c0.5,0.8,0.3,1.8-0.4,2.3C332.8,531.3,332.5,531.4,332.2,531.4z"/>
	</g>
</g>
<g id="Neck">
	<polygon id="XMLID_132_" class="st9" points="330.7,395.5 281.9,395.5 280.3,401.7 284.5,407.5 329.9,407.5 334.1,406.3 
		336.1,401.7 	"/>
	<polygon id="XMLID_130_" class="st9" points="284.5,411.5 280.3,417.7 284.5,424.8 334.1,422.2 334.1,416.3 332.2,411.5 	"/>
	<path id="XMLID_107_" class="st12" d="M296.5,397.3c0,0-8.5,6.8,2.7,10.7l-13.2-0.4l-5.7-5l1.1-3.9l3.1-1.9L296.5,397.3z"/>
	<path id="XMLID_106_" class="st12" d="M296.5,412.9c0,0-8.5,6.8,2.7,10.7l-13.2-0.4l-5.7-5l1.1-3.9l3.1-1.9L296.5,412.9z"/>
	<path id="XMLID_105_" class="st6" d="M314.3,397.3c0,0,12.2,6.8-3.9,10.7l19-0.4l8.3-5l-1.6-3.9l-4.5-1.9L314.3,397.3z"/>
	<path id="XMLID_104_" class="st6" d="M314.3,412.9c0,0,12.2,6.8-3.9,10.7l19-0.4l8.3-5l-1.6-3.9l-4.5-1.9L314.3,412.9z"/>
	<g id="XMLID_264_">
		<g id="XMLID_51_">
			<path id="XMLID_218_" class="st1" d="M329.9,426.5h-43.4c-4.9,0-8.8-4-8.8-8.8s4-8.8,8.8-8.8h43.4c4.9,0,8.8,4,8.8,8.8
				S334.7,426.5,329.9,426.5z M286.5,414.1c-2,0-3.6,1.6-3.6,3.6c0,2,1.6,3.6,3.6,3.6h43.4c2,0,3.6-1.6,3.6-3.6c0-2-1.6-3.6-3.6-3.6
				H286.5z"/>
		</g>
	</g>
	<g id="XMLID_262_">
		<g id="XMLID_50_">
			<path id="XMLID_215_" class="st1" d="M329.9,410.5h-43.4c-4.9,0-8.8-4-8.8-8.8s4-8.8,8.8-8.8h43.4c4.9,0,8.8,4,8.8,8.8
				S334.7,410.5,329.9,410.5z M286.5,398.1c-2,0-3.6,1.6-3.6,3.6s1.6,3.6,3.6,3.6h43.4c2,0,3.6-1.6,3.6-3.6s-1.6-3.6-3.6-3.6H286.5z
				"/>
		</g>
	</g>
</g>
<g id="Head">
	<polygon id="XMLID_134_" class="st7" points="193.6,188.8 180.5,201.2 172.3,215.8 170,315.8 170,361.3 180.5,378.8 195,390.7 
		207.9,395.5 406.3,395.5 425.6,392.8 437.8,379.5 447.2,361.3 448.5,249.4 448.5,218.1 440.1,198.8 418,186.3 398.2,186.3 
		224.7,186.3 207.9,185.5 	"/>
	<polygon id="XMLID_133_" class="st11" points="188,228.5 188,255.5 186.6,329.1 187.3,348.7 191.5,359.5 203.4,372.2 221.1,372.2 
		408.4,372.2 422.8,365.7 432.2,351.3 432.2,326.9 432.2,248 431.8,228.5 421.3,214.9 409.6,209.2 385.7,209.2 229.3,209.2 
		215.2,208.5 207.9,207.8 195,215.8 	"/>
	<path id="XMLID_112_" class="st6" d="M215.8,395.5c0,0,181.7,10.6,210.6-20.2s23-108.8,23-108.8l-0.9,88.9l-8.4,23.4l-24.8,15.1
		l-42,1.7H215.8z"/>
	<path id="XMLID_111_" class="st6" d="M210.8,371.9c0,0,20.8,19.7,68.2,11.8c47.4-7.9,106.7-11.8,106.7-11.8H210.8z"/>
	<path id="XMLID_110_" class="st9" d="M170,230.2c0,0,15.2-34.8,45.9-34.9c30.7-0.1,93.6,0,93.6,0v-10.5H207.9
		C207.9,184.9,168.9,189.1,170,230.2z"/>
	<path id="XMLID_109_" class="st9" d="M448.8,230.2c0,0-15.2-34.8-45.9-34.9c-30.7-0.1-93.6,0-93.6,0v-10.5h101.5
		C410.8,184.9,449.8,189.1,448.8,230.2z"/>
	<path id="XMLID_108_" class="st9" d="M170,315.8c0,0-4.6,83.3,78,81.5h-40.1l-19.2-10.4l-15.3-14.6l-3.5-10.9V315.8z"/>
	<g id="XMLID_65_">
		<path id="XMLID_209_" class="st1" d="M403.2,398.6H215.3c-26.7,0-48.5-21.7-48.5-48.5V230.2c0-26.7,21.7-48.5,48.5-48.5h187.9
			c26.7,0,48.5,21.7,48.5,48.5v119.9C451.6,376.9,429.9,398.6,403.2,398.6z M215.3,188c-23.3,0-42.3,19-42.3,42.3v119.9
			c0,23.3,19,42.3,42.3,42.3h187.9c23.3,0,42.3-19,42.3-42.3V230.2c0-23.3-19-42.3-42.3-42.3H215.3z"/>
	</g>
	<g id="XMLID_64_">
		<path id="XMLID_212_" class="st1" d="M403.3,375.3H215.2c-17.4,0-31.6-14.2-31.6-31.6V237c0-17.4,14.2-31.6,31.6-31.6h188.1
			c17.4,0,31.6,14.2,31.6,31.6v106.8C434.9,361.2,420.7,375.3,403.3,375.3z M215.2,211.6c-14,0-25.4,11.4-25.4,25.4v106.8
			c0,14,11.4,25.4,25.4,25.4h188.1c14,0,25.4-11.4,25.4-25.4V237c0-14-11.4-25.4-25.4-25.4H215.2z"/>
	</g>
	<path id="XMLID_49_" class="st1" d="M285.7,187.8c0-12.4,10.1-22.5,22.5-22.5s22.5,10.1,22.5,22.5"/>
	<g id="XMLID_48_">
		<path id="XMLID_208_" class="st1" d="M309.3,179.1c-0.8,0-1.6-0.4-2.2-1.1l-42.3-60.5c-0.8-1.2-0.5-2.8,0.6-3.7
			c1.2-0.8,2.8-0.5,3.7,0.6l42.3,60.5c0.8,1.2,0.5,2.8-0.6,3.7C310.3,179,309.8,179.1,309.3,179.1z"/>
	</g>
	<circle id="XMLID_47_" class="st1" cx="265.8" cy="114.4" r="10.1"/>
	<g id="XMLID_46_">
		<path id="XMLID_207_" class="st1" d="M308.2,179.1c-0.5,0-1-0.2-1.5-0.5c-1.2-0.8-1.5-2.5-0.6-3.7l42.3-60.5
			c0.8-1.2,2.5-1.5,3.7-0.6c1.2,0.8,1.5,2.5,0.6,3.7L310.3,178C309.8,178.7,309,179.1,308.2,179.1z"/>
	</g>
	<circle id="XMLID_45_" class="st1" cx="351.6" cy="114.4" r="10.1"/>
	<circle id="XMLID_3_" class="st1" cx="352.6" cy="383.7" r="5"/>
	<circle id="XMLID_2_" class="st1" cx="366.5" cy="383.7" r="5"/>
	<circle id="XMLID_15_" class="st1" cx="380.7" cy="383.7" r="5"/>
</g>
<g id="Face">
	<ellipse id="XMLID_113_" class="st13" cx="309.4" cy="258.6" rx="36.4" ry="45.4"/>
	<g id="XMLID_53_">
		<path id="XMLID_206_" class="st1" d="M341.7,351.3c-1.5,0-2.6-1.2-2.6-2.6c0-15.3-13.9-27.8-30.9-27.8c-17,0-30.9,12.5-30.9,27.8
			c0,1.5-1.2,2.6-2.6,2.6s-2.6-1.2-2.6-2.6c0-18.2,16.2-33.1,36.2-33.1c19.9,0,36.2,14.8,36.2,33.1
			C344.3,350.2,343.2,351.3,341.7,351.3z"/>
	</g>
	<g id="XMLID_41_">
		<path id="XMLID_204_" class="st1" d="M255.7,293.5c-1.7,0-3.1-1.4-3.1-3.1v-33.9L218,278.7v-50.2c0-1.7,1.4-3.1,3.1-3.1
			s3.1,1.4,3.1,3.1v38.8l34.6-22.2v45.3C258.8,292.1,257.4,293.5,255.7,293.5z"/>
	</g>
	<g id="XMLID_40_">
		<path id="XMLID_203_" class="st1" d="M396.4,293.5c-1.7,0-3.1-1.4-3.1-3.1v-33.9l-34.6,22.2v-50.2c0-1.7,1.4-3.1,3.1-3.1
			s3.1,1.4,3.1,3.1v38.8l34.6-22.2v45.3C399.5,292.1,398.1,293.5,396.4,293.5z"/>
	</g>
	<g id="XMLID_28_">
		<path id="XMLID_199_" class="st1" d="M309.3,296.5c-15.4,0-27.9-16.8-27.9-37.4s12.5-37.4,27.9-37.4s27.9,16.8,27.9,37.4
			S324.6,296.5,309.3,296.5z M309.3,228c-12,0-21.7,14-21.7,31.2s9.7,31.2,21.7,31.2c12,0,21.7-14,21.7-31.2S321.2,228,309.3,228z"
			/>
	</g>
</g>
<g id="Ground">
	<g id="XMLID_43_">
		<path id="XMLID_307_" class="st1" d="M555.8,675.4h-44.5c-1.5,0-2.7-1.2-2.7-2.7s1.2-2.7,2.7-2.7h44.5c1.5,0,2.7,1.2,2.7,2.7
			S557.3,675.4,555.8,675.4z"/>
	</g>
	<g id="XMLID_42_">
		<path id="XMLID_306_" class="st1" d="M500.4,675.4H67.9c-1.5,0-2.7-1.2-2.7-2.7s1.2-2.7,2.7-2.7h432.5c1.5,0,2.7,1.2,2.7,2.7
			S501.9,675.4,500.4,675.4z"/>
	</g>
	<g id="XMLID_17_">
		<path id="XMLID_305_" class="st1" d="M57.7,675.4h-19c-1.5,0-2.7-1.2-2.7-2.7s1.2-2.7,2.7-2.7h19c1.5,0,2.7,1.2,2.7,2.7
			S59.2,675.4,57.7,675.4z"/>
	</g>
	<g id="XMLID_304_">
		<path id="XMLID_377_" class="st1" d="M581.3,675.4H566c-1.5,0-2.7-1.2-2.7-2.7s1.2-2.7,2.7-2.7h15.3c1.5,0,2.7,1.2,2.7,2.7
			S582.8,675.4,581.3,675.4z"/>
	</g>
</g>
</svg>
